<svg version="1" xmlns="http://www.w3.org/2000/svg" width="400" height="398.667" viewBox="0 0 300 299"><path d="M286 1.3c-1.4.8-65.8 43.6-143.2 95.2C18.7 179.2 1.9 190.7 1 193.5c-1.3 3.8-.1 7.6 2.9 9.7 1.1.8 18.6 8.1 38.8 16.2l36.8 14.7 17.4 30.5c9.5 16.7 18.5 31.4 20 32.5 3.1 2.4 8.5 2 11.2-.8.9-1 6-9.1 11.4-18.1 5.5-9.2 10.2-16.1 10.9-15.9.6.3 21.5 8.6 46.4 18.6 24.8 9.9 45.9 18.1 46.8 18.1 3.3 0 7.5-3.5 8.4-7 1.5-5.2 47-279.4 47-283.1 0-2-1-4-2.9-6-3.2-3.2-6.2-3.6-10.1-1.6zm-19.7 43.9c-49.8 77.9-142.9 222.6-143.8 223.6-1.7 1.9-27.1-42.2-25.8-44.8.4-1 10.5-12.1 22.3-24.7 11.8-12.5 40.4-43.1 63.5-67.8C241 68.8 270.1 38 270.6 38c.2 0-1.7 3.3-4.3 7.2zm-26.9 12c-8 8.7-88.4 94.8-95.9 102.8-8.2 8.7-18.8 20-38.1 40.5-8.7 9.3-16.3 17-16.9 17C87 217.5 30 194.6 30 194c.1-.6 213.8-143 214.6-143 .3 0-2 2.8-5.2 6.2zM255 164.1c-9.9 59.6-18.2 109.4-18.5 110.6-.5 2-2.6 1.3-41.5-14.3-22.5-9-41.7-16.4-42.5-16.4-.8 0-1.5-.4-1.5-.8s8.4-13.8 18.8-29.8c10.3-16 37.6-58.4 60.7-94.2 23.1-35.8 42.1-64.7 42.3-64.3.1.4-7.9 49.6-17.8 109.2z" fill="#353535"/></svg>