<svg version="1" xmlns="http://www.w3.org/2000/svg" width="400" height="400" viewBox="0 0 300 300"><path d="M51.7 1.4c-2.6.7-6.2 2.6-7.9 4.2-5.5 5.2-5.8 7-5.8 33.8 0 16.6-.4 24.7-1.1 25.2-2.4 1.5-33.8 44.4-35 48C1 115 .5 120.6.5 127c0 8.5.4 11.4 2.1 15.1 4.2 9 12.4 15.4 21.4 16.6l3.9.6.3 63.1.3 63.1 2.5 4.3c1.5 2.7 4.2 5.4 7 7l4.5 2.7H149c58.6 0 107.7-.3 109.2-.8 3.1-.8 9.3-5.9 11.1-9.1.9-1.6 1.3-18.6 1.7-66.1l.5-63.9 4.3-.8c9.6-1.6 18.5-9 21.9-18.1 1.8-5.1 1.6-23.9-.4-28.8-.9-2.3-9.2-14.3-18.5-26.6L262 62.9V39.2c0-20.8-.3-24.2-1.9-27.7-2.5-5.5-7-9.1-13.1-10.4-7.9-1.7-188.9-1.4-195.3.3zM243.5 38v18.5h-187l-.3-18.8L56 19l93.7.2 93.8.3V38zM80.6 79.5c-1.4 2.5-9.8 17.4-18.8 33L45.6 141h-9.4c-9.9 0-14.2-1.3-16.2-4.9-.5-1.1-1-5.4-1-9.7v-7.7l15.7-21C43.3 86.2 51.3 76.4 52.4 76c1.2-.5 8.6-.9 16.4-.9l14.4-.1-2.6 4.5zm33.4-3.8c0 .5-4.1 15.3-9.2 33L95.6 141H76.3c-10.6 0-19.3-.4-19.3-.8 0-.8 32.3-57.8 35.6-63 1.3-2 2.2-2.2 11.4-2.2 5.5 0 10 .3 10 .7zm31 32.3v33h-19.3c-10.7 0-19.6-.2-19.9-.5-.4-.4 14.8-55.5 17.7-64.3.3-.8 3.4-1.2 11-1.2H145v33zm31.4-31.3c7.7 26.9 17.6 62.2 17.6 63.1 0 .9-4.8 1.2-19.7 1l-19.8-.3-.3-31.5c-.1-17.3 0-32 .3-32.7.3-.9 3.4-1.3 10.9-1.3 9.1 0 10.5.2 11 1.7zm48.2 30.8c10.1 17.6 18.4 32.3 18.4 32.7 0 .5-8.8.8-19.5.8s-19.5-.1-19.5-.3c0-.1-4-14.4-9-31.7-4.9-17.3-9-32.1-9-32.8 0-1 2.4-1.2 10.1-1l10.2.3 18.3 32zm23.1-31.2c1.2.7 9.2 10.6 17.8 22l15.5 20.8v6.9c0 12.7-2.7 15-17.4 15h-9.4l-18.6-32.5c-10.2-17.9-18.6-32.7-18.6-33 0-1.1 28.5-.4 30.7.8zM253 220v61h-55.9l-.3-48.6-.3-48.6-3.3-2.9-3.3-3-38.5.3-38.6.3-2.4 2.8-2.4 2.8V281H47V159h206v61zm-66 14v47h-70v-94h70v47z" fill="#353535"/></svg>